<svg xmlns="http://www.w3.org/2000/svg" xmlns:xlink="http://www.w3.org/1999/xlink" width="122" zoomAndPan="magnify" viewBox="0 0 91.5 30.000001" height="40" preserveAspectRatio="xMidYMid meet" version="1.0"><defs><g/><clipPath id="d51c16d479"><path d="M 65.621094 9 L 73 9 L 73 19 L 65.621094 19 Z M 65.621094 9 " clip-rule="nonzero"/></clipPath><clipPath id="b4561d45b7"><path d="M 78 9 L 84.59375 9 L 84.59375 19 L 78 19 Z M 78 9 " clip-rule="nonzero"/></clipPath><clipPath id="93c7a30a95"><path d="M 77 9 L 84.59375 9 L 84.59375 19 L 77 19 Z M 77 9 " clip-rule="nonzero"/></clipPath><clipPath id="70b7647dbf"><path d="M 72 7 L 79 7 L 79 21.488281 L 72 21.488281 Z M 72 7 " clip-rule="nonzero"/></clipPath><clipPath id="d5b2122864"><path d="M 71 6.894531 L 79 6.894531 L 79 21.488281 L 71 21.488281 Z M 71 6.894531 " clip-rule="nonzero"/></clipPath></defs><g clip-path="url(#d51c16d479)"><path fill="#03fa6e" d="M 71.605469 18.792969 C 71.5 18.792969 71.398438 18.757812 71.316406 18.691406 L 66.007812 14.554688 C 65.894531 14.46875 65.828125 14.335938 65.828125 14.191406 C 65.828125 14.046875 65.894531 13.914062 66.007812 13.824219 L 71.316406 9.6875 C 71.398438 9.625 71.5 9.589844 71.605469 9.589844 C 71.75 9.589844 71.886719 9.652344 71.976562 9.765625 C 72.054688 9.863281 72.089844 9.984375 72.074219 10.109375 C 72.058594 10.230469 71.996094 10.34375 71.898438 10.417969 L 67.0625 14.191406 L 71.898438 17.960938 C 71.996094 18.039062 72.058594 18.148438 72.074219 18.273438 C 72.089844 18.394531 72.054688 18.515625 71.976562 18.613281 C 71.886719 18.726562 71.75 18.792969 71.605469 18.792969 " fill-opacity="1" fill-rule="nonzero"/><path fill="#03fa6e" d="M 71.605469 9.390625 C 71.457031 9.390625 71.308594 9.441406 71.191406 9.53125 L 65.886719 13.667969 C 65.722656 13.796875 65.628906 13.984375 65.628906 14.191406 C 65.628906 14.394531 65.722656 14.585938 65.886719 14.710938 L 71.191406 18.847656 C 71.308594 18.941406 71.457031 18.992188 71.605469 18.992188 C 71.8125 18.992188 72.003906 18.898438 72.132812 18.738281 C 72.246094 18.597656 72.292969 18.425781 72.273438 18.25 C 72.25 18.074219 72.160156 17.914062 72.019531 17.804688 L 67.382812 14.191406 L 72.019531 10.574219 C 72.160156 10.464844 72.25 10.308594 72.273438 10.132812 C 72.292969 9.957031 72.246094 9.78125 72.132812 9.644531 C 72.003906 9.480469 71.8125 9.390625 71.605469 9.390625 Z M 71.605469 9.785156 C 71.6875 9.785156 71.765625 9.820312 71.816406 9.886719 C 71.910156 10.003906 71.890625 10.171875 71.773438 10.265625 L 66.738281 14.191406 L 71.773438 18.117188 C 71.890625 18.207031 71.910156 18.375 71.816406 18.492188 C 71.765625 18.558594 71.6875 18.59375 71.605469 18.59375 C 71.546875 18.59375 71.488281 18.578125 71.441406 18.539062 L 66.132812 14.402344 C 66.066406 14.351562 66.03125 14.273438 66.03125 14.191406 C 66.03125 14.109375 66.066406 14.03125 66.132812 13.980469 L 71.441406 9.84375 C 71.488281 9.804688 71.546875 9.785156 71.605469 9.785156 " fill-opacity="1" fill-rule="nonzero"/></g><g clip-path="url(#b4561d45b7)"><path fill="#03fa6e" d="M 78.609375 18.792969 C 78.460938 18.792969 78.328125 18.726562 78.238281 18.613281 C 78.078125 18.414062 78.113281 18.121094 78.316406 17.960938 L 83.152344 14.191406 L 78.316406 10.417969 C 78.113281 10.261719 78.078125 9.96875 78.238281 9.765625 C 78.328125 9.652344 78.460938 9.589844 78.609375 9.589844 C 78.710938 9.589844 78.816406 9.625 78.898438 9.6875 L 84.203125 13.824219 C 84.320312 13.914062 84.382812 14.046875 84.382812 14.191406 C 84.382812 14.335938 84.320312 14.46875 84.203125 14.554688 L 78.898438 18.691406 C 78.816406 18.757812 78.710938 18.792969 78.609375 18.792969 " fill-opacity="1" fill-rule="nonzero"/></g><g clip-path="url(#93c7a30a95)"><path fill="#03fa6e" d="M 78.609375 9.390625 C 78.402344 9.390625 78.207031 9.480469 78.082031 9.644531 C 77.851562 9.929688 77.902344 10.347656 78.191406 10.574219 L 82.828125 14.191406 L 78.191406 17.804688 C 77.902344 18.03125 77.851562 18.449219 78.082031 18.738281 C 78.207031 18.898438 78.402344 18.992188 78.609375 18.992188 C 78.757812 18.992188 78.902344 18.941406 79.019531 18.847656 L 84.328125 14.710938 C 84.492188 14.585938 84.582031 14.394531 84.582031 14.191406 C 84.582031 13.984375 84.492188 13.796875 84.328125 13.667969 L 79.023438 9.53125 C 78.90625 9.441406 78.757812 9.390625 78.609375 9.390625 Z M 78.609375 9.785156 C 78.664062 9.785156 78.726562 9.804688 78.773438 9.84375 L 84.082031 13.980469 C 84.144531 14.03125 84.183594 14.109375 84.183594 14.191406 C 84.183594 14.273438 84.144531 14.351562 84.082031 14.402344 L 78.773438 18.539062 C 78.726562 18.578125 78.664062 18.59375 78.609375 18.59375 C 78.527344 18.59375 78.449219 18.558594 78.394531 18.492188 C 78.304688 18.375 78.324219 18.207031 78.441406 18.117188 L 83.476562 14.191406 L 78.441406 10.265625 C 78.324219 10.171875 78.304688 10.003906 78.394531 9.886719 C 78.449219 9.820312 78.527344 9.785156 78.609375 9.785156 " fill-opacity="1" fill-rule="nonzero"/></g><g clip-path="url(#70b7647dbf)"><path fill="#03fa6e" d="M 72.46875 21.289062 C 72.410156 21.289062 72.355469 21.277344 72.300781 21.257812 C 72.183594 21.210938 72.089844 21.125 72.039062 21.011719 C 71.988281 20.898438 71.988281 20.769531 72.03125 20.65625 L 77.214844 7.390625 C 77.285156 7.210938 77.460938 7.09375 77.652344 7.09375 C 77.710938 7.09375 77.769531 7.101562 77.820312 7.125 C 78.0625 7.214844 78.183594 7.488281 78.089844 7.726562 L 72.910156 20.992188 C 72.839844 21.167969 72.660156 21.289062 72.46875 21.289062 " fill-opacity="1" fill-rule="nonzero"/></g><g clip-path="url(#d5b2122864)"><path fill="#03fa6e" d="M 77.652344 6.894531 C 77.378906 6.894531 77.125 7.066406 77.027344 7.316406 L 71.84375 20.582031 C 71.78125 20.75 71.785156 20.929688 71.855469 21.089844 C 71.929688 21.253906 72.0625 21.378906 72.226562 21.441406 C 72.304688 21.472656 72.386719 21.488281 72.46875 21.488281 C 72.746094 21.488281 72.996094 21.316406 73.09375 21.0625 L 78.277344 7.796875 C 78.410156 7.457031 78.238281 7.070312 77.894531 6.9375 C 77.816406 6.910156 77.734375 6.894531 77.652344 6.894531 Z M 77.652344 7.289062 C 77.683594 7.289062 77.71875 7.296875 77.75 7.308594 C 77.886719 7.363281 77.957031 7.515625 77.902344 7.652344 L 72.722656 20.917969 C 72.679688 21.027344 72.578125 21.089844 72.46875 21.089844 C 72.4375 21.089844 72.40625 21.085938 72.371094 21.074219 C 72.234375 21.019531 72.164062 20.863281 72.21875 20.726562 L 77.398438 7.460938 C 77.441406 7.355469 77.542969 7.289062 77.652344 7.289062 " fill-opacity="1" fill-rule="nonzero"/></g><g fill="#ffffff" fill-opacity="1"><g transform="translate(7.798429, 18.215921)"><g><path d="M 2.746094 0 L 2.746094 -5.417969 C 2.914062 -5.457031 3.753906 -5.519531 4.0625 -5.519531 L 5.171875 -5.519531 L 5.171875 -7.40625 L 3.726562 -7.40625 C 3.058594 -7.40625 1.78125 -7.351562 0.695312 -7.121094 L 0.695312 0 Z M 2.746094 0 "/></g></g></g><g fill="#ffffff" fill-opacity="1"><g transform="translate(12.970374, 18.215921)"><g><path d="M 4.152344 -7.664062 C 3.210938 -7.664062 2.117188 -7.457031 1.5625 -7.238281 L 1.109375 -5.417969 C 1.921875 -5.742188 2.980469 -5.933594 3.714844 -5.933594 C 4.851562 -5.933594 5.496094 -5.597656 5.496094 -4.671875 L 5.496094 -4.398438 C 4.890625 -4.476562 4.359375 -4.503906 3.820312 -4.503906 C 1.792969 -4.503906 0.515625 -3.78125 0.515625 -2.207031 L 0.515625 -2.179688 C 0.515625 -0.4375 1.921875 0.207031 4.191406 0.207031 C 5.199219 0.207031 6.527344 0.0664062 7.546875 -0.15625 L 7.546875 -4.734375 C 7.546875 -6.925781 6.207031 -7.664062 4.152344 -7.664062 Z M 2.617188 -2.308594 C 2.617188 -2.96875 3.238281 -3.199219 4.269531 -3.199219 C 4.59375 -3.199219 5.082031 -3.160156 5.496094 -3.097656 L 5.496094 -1.496094 C 5.070312 -1.433594 4.617188 -1.394531 4.269531 -1.394531 C 3.226562 -1.394531 2.617188 -1.652344 2.617188 -2.285156 Z M 2.617188 -2.308594 "/></g></g></g><g fill="#ffffff" fill-opacity="1"><g transform="translate(20.696105, 18.215921)"><g><path d="M 3.636719 0 L 3.636719 -5.546875 L 6.347656 -5.546875 L 6.347656 -7.40625 L 3.636719 -7.40625 L 3.636719 -8.011719 C 3.636719 -8.589844 3.972656 -8.964844 4.875 -8.964844 L 6.359375 -8.964844 L 6.359375 -10.460938 L 4.671875 -10.460938 C 2.65625 -10.460938 1.585938 -9.6875 1.585938 -8.101562 L 1.585938 -7.40625 L 0.296875 -7.40625 L 0.296875 -5.546875 L 1.585938 -5.546875 L 1.585938 0 Z M 3.636719 0 "/></g></g></g><g fill="#ffffff" fill-opacity="1"><g transform="translate(27.054655, 18.215921)"><g><path d="M 4.152344 -7.664062 C 3.210938 -7.664062 2.117188 -7.457031 1.5625 -7.238281 L 1.109375 -5.417969 C 1.921875 -5.742188 2.980469 -5.933594 3.714844 -5.933594 C 4.851562 -5.933594 5.496094 -5.597656 5.496094 -4.671875 L 5.496094 -4.398438 C 4.890625 -4.476562 4.359375 -4.503906 3.820312 -4.503906 C 1.792969 -4.503906 0.515625 -3.78125 0.515625 -2.207031 L 0.515625 -2.179688 C 0.515625 -0.4375 1.921875 0.207031 4.191406 0.207031 C 5.199219 0.207031 6.527344 0.0664062 7.546875 -0.15625 L 7.546875 -4.734375 C 7.546875 -6.925781 6.207031 -7.664062 4.152344 -7.664062 Z M 2.617188 -2.308594 C 2.617188 -2.96875 3.238281 -3.199219 4.269531 -3.199219 C 4.59375 -3.199219 5.082031 -3.160156 5.496094 -3.097656 L 5.496094 -1.496094 C 5.070312 -1.433594 4.617188 -1.394531 4.269531 -1.394531 C 3.226562 -1.394531 2.617188 -1.652344 2.617188 -2.285156 Z M 2.617188 -2.308594 "/></g></g></g><g fill="#03fa6e" fill-opacity="1"><g transform="translate(34.776759, 18.215921)"><g><path d="M 2.722656 0 L 2.722656 -3.78125 L 5.445312 -3.78125 C 8.0625 -3.78125 9.148438 -5.339844 9.148438 -7.1875 L 9.148438 -7.199219 C 9.148438 -8.886719 8.179688 -10.460938 5.445312 -10.460938 L 0.710938 -10.460938 L 0.710938 0 Z M 2.722656 -8.578125 L 5.238281 -8.578125 C 6.425781 -8.578125 7.082031 -8.101562 7.082031 -7.054688 L 7.082031 -7.042969 C 7.082031 -6.011719 6.410156 -5.558594 5.238281 -5.558594 L 2.722656 -5.558594 Z M 2.722656 -8.578125 "/></g></g></g><g fill="#03fa6e" fill-opacity="1"><g transform="translate(43.882567, 18.215921)"><g><path d="M 4.152344 -7.664062 C 3.210938 -7.664062 2.117188 -7.457031 1.5625 -7.238281 L 1.109375 -5.417969 C 1.921875 -5.742188 2.980469 -5.933594 3.714844 -5.933594 C 4.851562 -5.933594 5.496094 -5.597656 5.496094 -4.671875 L 5.496094 -4.398438 C 4.890625 -4.476562 4.359375 -4.503906 3.820312 -4.503906 C 1.792969 -4.503906 0.515625 -3.78125 0.515625 -2.207031 L 0.515625 -2.179688 C 0.515625 -0.4375 1.921875 0.207031 4.191406 0.207031 C 5.199219 0.207031 6.527344 0.0664062 7.546875 -0.15625 L 7.546875 -4.734375 C 7.546875 -6.925781 6.207031 -7.664062 4.152344 -7.664062 Z M 2.617188 -2.308594 C 2.617188 -2.96875 3.238281 -3.199219 4.269531 -3.199219 C 4.59375 -3.199219 5.082031 -3.160156 5.496094 -3.097656 L 5.496094 -1.496094 C 5.070312 -1.433594 4.617188 -1.394531 4.269531 -1.394531 C 3.226562 -1.394531 2.617188 -1.652344 2.617188 -2.285156 Z M 2.617188 -2.308594 "/></g></g></g><g fill="#03fa6e" fill-opacity="1"><g transform="translate(51.608298, 18.215921)"><g><path d="M 5.519531 -2.011719 C 5.148438 -1.960938 4.605469 -1.921875 4.207031 -1.921875 C 3.265625 -1.921875 2.746094 -2.257812 2.746094 -3.199219 L 2.746094 -7.40625 L 0.710938 -7.40625 L 0.710938 -3.1875 C 0.710938 -0.953125 2.296875 -0.324219 4.128906 -0.324219 C 4.527344 -0.324219 5.042969 -0.359375 5.519531 -0.414062 L 5.519531 -0.140625 C 5.519531 0.773438 5.121094 1.175781 3.894531 1.175781 C 3.210938 1.175781 2.039062 0.980469 1.316406 0.632812 L 1.765625 2.582031 C 2.21875 2.785156 3.265625 2.980469 4.179688 2.980469 C 6 2.980469 7.558594 2.269531 7.558594 0.0507812 L 7.558594 -7.328125 L 5.519531 -7.328125 Z M 5.519531 -2.011719 "/></g></g></g></svg>